<svg width="25" height="24" viewBox="0 0 25 24" fill="none" xmlns="http://www.w3.org/2000/svg">
<path d="M2.75798 5.31279C2.52717 5.44417 2.33538 5.63447 2.20221 5.86424C2.06904 6.09402 1.99926 6.35503 2.00001 6.6206V20.5312C1.99917 20.7904 2.0655 21.0454 2.19253 21.2713C2.31956 21.4972 2.50296 21.6863 2.72484 21.8203C2.94673 21.9542 3.19953 22.0284 3.45861 22.0355C3.71769 22.0427 3.9742 21.9826 4.20313 21.8611C4.22329 21.8503 4.24298 21.839 4.2622 21.8264L8.20626 19.2459C8.25863 19.2118 8.30164 19.165 8.33136 19.11C8.36107 19.055 8.37656 18.9934 8.37641 18.9309V2.17732C8.37661 2.10901 8.35813 2.04194 8.32299 1.98336C8.28785 1.92478 8.23738 1.87692 8.17702 1.84493C8.11666 1.81294 8.04871 1.79804 7.9805 1.80185C7.9123 1.80566 7.84643 1.82803 7.79001 1.86654L2.75798 5.31279Z" fill="#FF4D26"/>
<path d="M10.4544 1.84281C10.3978 1.80606 10.3324 1.78523 10.265 1.78253C10.1977 1.77982 10.1308 1.79534 10.0715 1.82744C10.0122 1.85954 9.96264 1.90703 9.92806 1.96493C9.89348 2.02282 9.87515 2.08897 9.875 2.15641V18.917C9.87485 18.9796 9.89034 19.0411 9.92006 19.0961C9.94978 19.1512 9.99278 19.1979 10.0452 19.232L14.5452 22.158C14.6017 22.1949 14.6672 22.2158 14.7347 22.2185C14.8022 22.2213 14.8692 22.2058 14.9286 22.1736C14.988 22.1414 15.0376 22.0938 15.0722 22.0358C15.1067 21.9777 15.125 21.9115 15.125 21.8439V5.09406C15.1252 5.03141 15.1097 4.96972 15.0798 4.91461C15.05 4.8595 15.0069 4.81274 14.9544 4.77859L10.4544 1.84281Z" fill="#FF4D26"/>
<path d="M22.2748 2.17807C22.0538 2.04278 21.8011 1.96778 21.5421 1.96054C21.283 1.9533 21.0266 2.01408 20.7983 2.13682C20.7781 2.14719 20.7585 2.15877 20.7397 2.1715L16.7952 4.74963C16.7428 4.78378 16.6998 4.8305 16.6701 4.88551C16.6403 4.94053 16.6249 5.0021 16.625 5.06463V21.8206C16.6248 21.889 16.6432 21.9561 16.6784 22.0148C16.7135 22.0734 16.7641 22.1213 16.8245 22.1533C16.8849 22.1853 16.953 22.2002 17.0213 22.1963C17.0895 22.1925 17.1555 22.17 17.2119 22.1313L22.2308 18.6879C22.4644 18.5576 22.6589 18.3672 22.7941 18.1364C22.9294 17.9056 23.0005 17.6429 23 17.3754V3.50041C23.0031 3.23623 22.938 2.97573 22.8109 2.74408C22.6839 2.51244 22.4993 2.31748 22.2748 2.17807Z" fill="#FF4D26"/>
</svg>
