<svg width="32" height="32" viewBox="0 0 32 32" fill="none" xmlns="http://www.w3.org/2000/svg">
<g id="heart">
<path id="Vector" d="M16 28C15.5985 27.9995 15.2065 27.8782 14.875 27.6519C9.96309 24.3175 7.83621 22.0312 6.66309 20.6019C4.16309 17.555 2.96621 14.4269 2.99996 11.0394C3.03934 7.1575 6.15371 4 9.94246 4C12.6975 4 14.6056 5.55188 15.7168 6.84438C15.752 6.88491 15.7955 6.91741 15.8444 6.93968C15.8932 6.96195 15.9463 6.97348 16 6.97348C16.0536 6.97348 16.1067 6.96195 16.1555 6.93968C16.2044 6.91741 16.2479 6.88491 16.2831 6.84438C17.3943 5.55063 19.3025 4 22.0575 4C25.8462 4 28.9606 7.1575 29 11.04C29.0337 14.4281 27.8356 17.5563 25.3368 20.6025C24.1637 22.0319 22.0368 24.3181 17.125 27.6525C16.7933 27.8786 16.4013 27.9997 16 28Z" fill="#FF4D26"/>
</g>
</svg>
