<svg width="24" height="24" viewBox="0 0 24 24" fill="none" xmlns="http://www.w3.org/2000/svg">
<path d="M11.9999 6.14995C12.4693 6.14995 12.8499 5.76939 12.8499 5.29995C12.8499 4.83051 12.4693 4.44995 11.9999 4.44995C11.5305 4.44995 11.1499 4.83051 11.1499 5.29995C11.1499 5.76939 11.5305 6.14995 11.9999 6.14995Z" stroke="#98989E" stroke-width="1.5" stroke-miterlimit="10"/>
<path d="M11.9999 12.8499C12.4693 12.8499 12.8499 12.4693 12.8499 11.9999C12.8499 11.5305 12.4693 11.1499 11.9999 11.1499C11.5305 11.1499 11.1499 11.5305 11.1499 11.9999C11.1499 12.4693 11.5305 12.8499 11.9999 12.8499Z" stroke="#98989E" stroke-width="1.5" stroke-miterlimit="10"/>
<path d="M11.9999 19.55C12.4693 19.55 12.8499 19.1694 12.8499 18.7C12.8499 18.2305 12.4693 17.85 11.9999 17.85C11.5305 17.85 11.1499 18.2305 11.1499 18.7C11.1499 19.1694 11.5305 19.55 11.9999 19.55Z" stroke="#98989E" stroke-width="1.5" stroke-miterlimit="10"/>
</svg>
