<svg width="18" height="18" viewBox="0 0 18 18" fill="none" xmlns="http://www.w3.org/2000/svg">
<g id="pencil">
<g id="Group 2603">
<path id="Vector" d="M11.4128 4.75537L1.8457 14.346V16.3849H3.88477L13.4754 6.81781L11.4128 4.75537Z" fill="white"/>
<path id="Vector (Stroke)" fill-rule="evenodd" clip-rule="evenodd" d="M10.7352 4.15926C10.9095 3.98453 11.1925 3.98435 11.367 4.15886L13.8412 6.63284C14.0158 6.80736 14.0156 7.09038 13.8409 7.2647L4.95982 16.1239C4.79241 16.2909 4.5656 16.3847 4.32914 16.3847H1.88314C1.73518 16.3847 1.61523 16.2648 1.61523 16.1168V13.6709C1.61523 13.4345 1.70902 13.2077 1.87601 13.0403L10.7352 4.15926ZM11.0525 6.37008L3.40125 14.0402V14.5987H3.95989L11.63 6.94746L11.0525 6.37008Z" fill="white"/>
<path id="Vector_2" d="M12.9606 2.18803L11.8804 3.26749C11.7059 3.44183 11.7059 3.72462 11.8803 3.89904L14.1026 6.1217C14.277 6.29609 14.5598 6.2961 14.7341 6.1217L15.8146 5.04113C16.1809 4.67447 16.3867 4.17734 16.3867 3.65899C16.3867 3.14065 16.1809 2.64351 15.8146 2.27685L15.7258 2.18803C15.5442 2.00643 15.3287 1.86238 15.0914 1.7641C14.8542 1.66582 14.6 1.61523 14.3432 1.61523C14.0864 1.61523 13.8322 1.66582 13.5949 1.7641C13.3577 1.86238 13.1422 2.00643 12.9606 2.18803Z" fill="white"/>
</g>
</g>
</svg>
