<svg width="18" height="18" viewBox="0 0 18 18" fill="none" xmlns="http://www.w3.org/2000/svg">
<g id="call">
<path id="Vector" d="M15.8557 13.1485C15.2974 12.586 13.9453 11.7651 13.2893 11.4343C12.435 11.004 12.3647 10.9688 11.6932 11.4677C11.2453 11.8006 10.9475 12.098 10.4233 11.9863C9.89915 11.8745 8.76008 11.2441 7.7627 10.2499C6.76532 9.25566 6.0984 8.08355 5.98626 7.56113C5.87411 7.03871 6.17645 6.74445 6.50622 6.29551C6.97098 5.66269 6.93583 5.55723 6.53856 4.70293C6.22883 4.03848 5.38403 2.69902 4.81942 2.14355C4.21544 1.54695 4.21544 1.65242 3.82626 1.81414C3.50942 1.94745 3.20545 2.10949 2.91817 2.29824C2.35567 2.67195 2.04348 2.98238 1.82516 3.44891C1.60684 3.91543 1.50876 5.00914 2.63622 7.05734C3.76368 9.10555 4.55469 10.1529 6.19192 11.7855C7.82915 13.4182 9.08809 14.296 10.9285 15.3282C13.2052 16.6033 14.0785 16.3548 14.5465 16.1368C15.0144 15.9188 15.3262 15.6095 15.7006 15.047C15.8899 14.7602 16.0523 14.4565 16.1858 14.1399C16.3479 13.7521 16.4533 13.7521 15.8557 13.1485Z" stroke="#98989E" stroke-miterlimit="10"/>
</g>
</svg>
