<svg width="16" height="16" viewBox="0 0 16 16" fill="none" xmlns="http://www.w3.org/2000/svg">
<g id="Huge-icon">
<g id="like">
<path id="Combo shape" fill-rule="evenodd" clip-rule="evenodd" d="M8.474 14H10.5845C11.8082 14 12.8748 13.1672 13.1716 11.9801L14.2524 7.65671C14.4628 6.81518 13.8263 6 12.9589 6H9.6666L10.5378 4.50645C11.186 3.39536 10.3845 2 9.0982 2H8.33326L5.75444 6.51295C5.69687 6.61368 5.6666 6.72769 5.6666 6.84371V12.3099C5.6666 12.5328 5.778 12.7409 5.96347 12.8646L6.9948 13.5521C7.43285 13.8442 7.94753 14 8.474 14ZM2.66659 6H3.33325C4.06963 6 4.66659 6.59695 4.66659 7.33333V12C4.66659 12.7364 4.06963 13.3333 3.33325 13.3333H2.66659C1.93021 13.3333 1.33325 12.7364 1.33325 12V7.33333C1.33325 6.59695 1.93021 6 2.66659 6Z" fill="#FF4D26"/>
</g>
</g>
</svg>
