<svg width="20" height="18" viewBox="0 0 20 18" fill="none" xmlns="http://www.w3.org/2000/svg">
<path d="M15.3904 17.7501C15.2589 17.7506 15.1305 17.7096 15.0236 17.6329L9.99982 13.9907L4.97599 17.6329C4.86866 17.7108 4.73936 17.7525 4.60677 17.752C4.47418 17.7515 4.34518 17.7089 4.23842 17.6302C4.13165 17.5516 4.05266 17.4411 4.01286 17.3146C3.97306 17.1881 3.97451 17.0523 4.01701 16.9267L5.97639 11.1232L0.89826 7.64073C0.788264 7.56539 0.705246 7.45684 0.661335 7.33095C0.617423 7.20506 0.61492 7.06843 0.654191 6.94102C0.693463 6.8136 0.77245 6.70209 0.879612 6.62276C0.986774 6.54344 1.1165 6.50046 1.24982 6.50011H7.51467L9.40529 0.681749C9.44602 0.556132 9.52549 0.446644 9.6323 0.368991C9.73911 0.291338 9.86777 0.249512 9.99982 0.249512C10.1319 0.249512 10.2605 0.291338 10.3673 0.368991C10.4742 0.446644 10.5536 0.556132 10.5944 0.681749L12.485 6.50206H18.7498C18.8833 6.502 19.0133 6.54467 19.1208 6.62385C19.2283 6.70302 19.3076 6.81453 19.3471 6.94204C19.3866 7.06955 19.3843 7.20636 19.3404 7.33244C19.2966 7.45852 19.2135 7.56724 19.1033 7.64269L14.0233 11.1232L15.9815 16.9251C16.0132 17.019 16.0221 17.1192 16.0075 17.2172C15.9929 17.3153 15.9551 17.4085 15.8974 17.4891C15.8397 17.5697 15.7636 17.6354 15.6754 17.6808C15.5873 17.7262 15.4896 17.7499 15.3904 17.7501Z" fill="#FF4D26"/>
</svg>
