<svg width="16" height="16" viewBox="0 0 16 16" fill="none" xmlns="http://www.w3.org/2000/svg">
<g id="Huge-icon">
<g id="Vector">
<path d="M3.99992 5.33333H2.66659C1.93021 5.33333 1.33325 5.93029 1.33325 6.66667V12.6667C1.33325 13.403 1.93021 14 2.66659 14H3.99992C4.7363 14 5.33325 13.403 5.33325 12.6667V6.66667C5.33325 5.93029 4.7363 5.33333 3.99992 5.33333Z" stroke="#B5B6BD" stroke-linecap="round" stroke-linejoin="round"/>
<path d="M10.5845 14H8.14065C7.61419 14 7.0995 13.8442 6.66145 13.5521L5.63012 12.8646C5.44465 12.7409 5.33325 12.5328 5.33325 12.3099V6.84371C5.33325 6.72769 5.36353 6.61368 5.42109 6.51295L7.99992 2H8.88572C10.2169 2 11.0109 3.48357 10.2725 4.59117L9.33325 6H12.9589C13.8263 6 14.4628 6.81518 14.2524 7.65671L13.1716 11.9801C12.8748 13.1672 11.8082 14 10.5845 14Z" stroke="#B5B6BD" stroke-linecap="round" stroke-linejoin="round"/>
</g>
</g>
</svg>
