<svg width="347" height="322" viewBox="0 0 347 322" fill="none" xmlns="http://www.w3.org/2000/svg">
<g filter="url(#filter0_d_826_21748)">
<rect x="6" y="1" width="335" height="310" rx="16" fill="white"/>
<path d="M312.562 42.5625L299.438 29.4375" stroke="#5C5D61" stroke-width="1.5" stroke-linecap="round" stroke-linejoin="round"/>
<path d="M312.562 29.4375L299.438 42.5625" stroke="#5C5D61" stroke-width="1.5" stroke-linecap="round" stroke-linejoin="round"/>
<circle cx="173.5" cy="86" r="25.75" stroke="#FF4D26" stroke-width="2.5"/>
<path d="M161.125 84.875L170.125 93.875L187 78.125" stroke="#FF4D26" stroke-width="2.5" stroke-linecap="round" stroke-linejoin="round"/>
<path d="M116.18 155.406H114.43V141.266H116.18V155.406ZM104.883 147.281C104.883 146.286 105.039 145.411 105.352 144.656C105.664 143.901 106.099 143.32 106.656 142.914C107.219 142.503 107.857 142.297 108.57 142.297C109.273 142.297 109.904 142.503 110.461 142.914C111.023 143.32 111.464 143.901 111.781 144.656C112.099 145.411 112.258 146.286 112.258 147.281C112.258 148.286 112.099 149.167 111.781 149.922C111.464 150.677 111.023 151.26 110.461 151.672C109.904 152.078 109.273 152.281 108.57 152.281C107.857 152.281 107.219 152.078 106.656 151.672C106.099 151.26 105.664 150.677 105.352 149.922C105.039 149.167 104.883 148.286 104.883 147.281ZM106.555 147.281C106.555 147.995 106.638 148.609 106.805 149.125C106.977 149.641 107.214 150.034 107.516 150.305C107.818 150.576 108.169 150.714 108.57 150.719C108.966 150.714 109.315 150.576 109.617 150.305C109.919 150.034 110.154 149.641 110.32 149.125C110.487 148.609 110.57 147.995 110.57 147.281C110.57 146.573 110.487 145.964 110.32 145.453C110.154 144.938 109.919 144.544 109.617 144.273C109.315 143.997 108.966 143.859 108.57 143.859C108.169 143.859 107.818 143.997 107.516 144.273C107.214 144.544 106.977 144.938 106.805 145.453C106.638 145.964 106.555 146.573 106.555 147.281ZM123.942 146.469H125.583V141.516H127.239V154.703H125.583V147.875H123.942V151.75H118.395V142.797H123.942V146.469ZM122.317 150.375V144.172H120.02V150.375H122.317ZM128.473 141.266H130.145V155.391H128.473V141.266ZM135.486 141.719C136.194 141.719 136.832 141.857 137.4 142.133C137.968 142.404 138.413 142.781 138.736 143.266C139.064 143.75 139.231 144.297 139.236 144.906C139.231 145.521 139.064 146.07 138.736 146.555C138.413 147.034 137.968 147.411 137.4 147.688C136.832 147.958 136.194 148.094 135.486 148.094C134.772 148.094 134.129 147.958 133.556 147.688C132.989 147.411 132.543 147.034 132.22 146.555C131.897 146.07 131.736 145.521 131.736 144.906C131.736 144.297 131.897 143.75 132.22 143.266C132.543 142.781 132.989 142.404 133.556 142.133C134.129 141.857 134.772 141.719 135.486 141.719ZM133.423 144.906C133.423 145.266 133.512 145.581 133.689 145.852C133.866 146.117 134.111 146.323 134.423 146.469C134.736 146.615 135.09 146.688 135.486 146.688C135.882 146.688 136.233 146.615 136.541 146.469C136.853 146.323 137.098 146.117 137.275 145.852C137.457 145.581 137.548 145.266 137.548 144.906C137.548 144.557 137.457 144.25 137.275 143.984C137.098 143.719 136.853 143.516 136.541 143.375C136.233 143.229 135.882 143.156 135.486 143.156C135.09 143.156 134.736 143.229 134.423 143.375C134.111 143.516 133.866 143.719 133.689 143.984C133.512 144.25 133.423 144.557 133.423 144.906ZM133.877 149.016H143.252V152.703H135.611V153.844H143.673V155.219H133.908V151.422H141.517V150.375H133.877V149.016ZM141.502 141.266H143.252V148.406H141.502V141.266ZM157.92 153.75H145.014V152.312H150.577V150.016H146.545V145.391H154.67V143.641H146.514V142.234H156.389V146.766H148.28V148.594H156.717V150.016H152.295V152.312H157.92V153.75ZM173.805 149.281H172.055V141.281H173.805V149.281ZM162.289 145.328C162.289 144.677 162.453 144.096 162.781 143.586C163.115 143.07 163.57 142.669 164.148 142.383C164.727 142.096 165.378 141.953 166.102 141.953C166.82 141.953 167.469 142.096 168.047 142.383C168.625 142.669 169.078 143.07 169.406 143.586C169.734 144.096 169.898 144.677 169.898 145.328C169.898 145.969 169.734 146.544 169.406 147.055C169.078 147.56 168.625 147.956 168.047 148.242C167.469 148.529 166.82 148.672 166.102 148.672C165.383 148.672 164.732 148.529 164.148 148.242C163.57 147.956 163.115 147.56 162.781 147.055C162.453 146.544 162.289 145.969 162.289 145.328ZM163.992 145.328C163.992 145.703 164.081 146.034 164.258 146.32C164.435 146.602 164.682 146.82 165 146.977C165.323 147.128 165.69 147.203 166.102 147.203C166.503 147.203 166.862 147.128 167.18 146.977C167.497 146.82 167.745 146.602 167.922 146.32C168.104 146.034 168.195 145.703 168.195 145.328C168.195 144.943 168.104 144.607 167.922 144.32C167.745 144.034 167.497 143.812 167.18 143.656C166.862 143.5 166.503 143.422 166.102 143.422C165.69 143.422 165.323 143.5 165 143.656C164.682 143.812 164.435 144.034 164.258 144.32C164.081 144.607 163.992 144.943 163.992 145.328ZM164.43 149.969H173.805V155.219H164.43V149.969ZM172.102 153.812V151.344H166.148V153.812H172.102ZM180.911 144.656C180.906 145.526 181.049 146.372 181.341 147.195C181.632 148.018 182.054 148.75 182.606 149.391C183.158 150.031 183.807 150.51 184.552 150.828L183.52 152.219C182.723 151.849 182.028 151.312 181.434 150.609C180.846 149.901 180.385 149.076 180.052 148.133C179.718 149.148 179.247 150.039 178.637 150.805C178.033 151.57 177.312 152.151 176.473 152.547L175.411 151.094C176.177 150.766 176.841 150.271 177.403 149.609C177.966 148.943 178.395 148.18 178.692 147.32C178.989 146.461 179.14 145.573 179.145 144.656V142.406H180.911V144.656ZM185.567 141.266H187.317V155.406H185.567V141.266ZM200.845 155.406H199.095V141.266H200.845V155.406ZM189.845 142.422H191.58V145.953H195.002V142.422H196.72V152.078H189.845V142.422ZM195.002 150.656V147.312H191.58V150.656H195.002ZM210.155 147.891H203.342V142H210.155V147.891ZM205.014 149.094H214.358V152.75H206.748V153.891H214.78V155.266H205.03V151.5H212.67V150.453H205.014V149.094ZM208.436 146.531V143.391H205.061V146.531H208.436ZM212.639 141.266H214.358V148.453H212.639V141.266ZM227.98 151.703H226.245V146.5H223.402V149.406H216.792V142.203H218.527V144.484H221.683V142.203H223.402V145.094H226.245V141.281H227.98V151.703ZM221.683 148.031V145.828H218.527V148.031H221.683ZM218.667 150.672H220.433V153.703H228.292V155.109H218.667V150.672ZM241.93 144.562H230.258V143.156H235.242V141.453H236.961V143.156H241.93V144.562ZM229.68 152.469H235.242V150.734C234.43 150.672 233.729 150.523 233.141 150.289C232.557 150.055 232.109 149.745 231.797 149.359C231.49 148.969 231.336 148.516 231.336 148C231.336 147.438 231.526 146.953 231.906 146.547C232.292 146.135 232.841 145.823 233.555 145.609C234.273 145.391 235.122 145.281 236.102 145.281C237.065 145.281 237.904 145.391 238.617 145.609C239.336 145.823 239.888 146.135 240.273 146.547C240.659 146.953 240.852 147.438 240.852 148C240.852 148.51 240.695 148.961 240.383 149.352C240.07 149.737 239.622 150.047 239.039 150.281C238.456 150.516 237.763 150.667 236.961 150.734V152.469H242.586V153.875H229.68V152.469ZM233.117 148C233.112 148.448 233.365 148.789 233.875 149.023C234.391 149.253 235.133 149.37 236.102 149.375C237.055 149.37 237.786 149.253 238.297 149.023C238.812 148.789 239.07 148.448 239.07 148C239.07 147.557 238.812 147.221 238.297 146.992C237.786 146.763 237.055 146.646 236.102 146.641C235.133 146.646 234.391 146.763 233.875 146.992C233.365 147.221 233.112 147.557 233.117 148ZM120.992 173.594H119.258V168.422H116.758V167.016H119.258V163.281H120.992V173.594ZM109.133 170.547C109.862 170.307 110.487 169.958 111.008 169.5C111.529 169.036 111.922 168.51 112.188 167.922C112.453 167.328 112.586 166.714 112.586 166.078V165.703H109.648V164.297H117.273V165.703H114.352V166.094C114.352 166.672 114.479 167.237 114.734 167.789C114.99 168.336 115.367 168.828 115.867 169.266C116.367 169.698 116.971 170.031 117.68 170.266L116.805 171.656C116.034 171.391 115.367 171.005 114.805 170.5C114.247 169.99 113.81 169.391 113.492 168.703C113.174 169.464 112.721 170.125 112.133 170.688C111.544 171.25 110.841 171.672 110.023 171.953L109.133 170.547ZM111.727 172.688H113.461V175.703H121.352V177.109H111.727V172.688ZM129.973 170.094H135.567V171.484H122.692V170.094H128.255V168.25H129.973V170.094ZM123.395 167.688C124.343 167.568 125.182 167.328 125.911 166.969C126.645 166.604 127.213 166.164 127.614 165.648C128.02 165.133 128.223 164.594 128.223 164.031V163.5H129.989V164.031C129.989 164.604 130.19 165.148 130.591 165.664C130.992 166.18 131.559 166.617 132.294 166.977C133.028 167.331 133.874 167.568 134.833 167.688L134.161 169.047C133.005 168.87 131.984 168.531 131.098 168.031C130.213 167.526 129.546 166.904 129.098 166.164C128.645 166.904 127.976 167.526 127.091 168.031C126.205 168.531 125.182 168.87 124.02 169.047L123.395 167.688ZM124.192 174.891C124.192 174.365 124.388 173.917 124.778 173.547C125.169 173.172 125.731 172.888 126.466 172.695C127.205 172.503 128.088 172.406 129.114 172.406C130.13 172.406 131.002 172.503 131.731 172.695C132.466 172.888 133.028 173.172 133.419 173.547C133.809 173.917 134.005 174.365 134.005 174.891C134.005 175.422 133.809 175.872 133.419 176.242C133.033 176.612 132.473 176.893 131.739 177.086C131.01 177.279 130.135 177.375 129.114 177.375C128.088 177.375 127.205 177.279 126.466 177.086C125.731 176.893 125.169 176.612 124.778 176.242C124.388 175.872 124.192 175.422 124.192 174.891ZM125.958 174.891C125.953 175.276 126.216 175.568 126.747 175.766C127.283 175.964 128.072 176.062 129.114 176.062C130.135 176.062 130.914 175.964 131.45 175.766C131.992 175.568 132.265 175.276 132.27 174.891C132.265 174.505 131.994 174.216 131.458 174.023C130.921 173.831 130.14 173.734 129.114 173.734C128.072 173.734 127.283 173.831 126.747 174.023C126.216 174.216 125.953 174.505 125.958 174.891ZM143.983 163.875C144.665 163.875 145.274 163.995 145.811 164.234C146.347 164.474 146.767 164.81 147.069 165.242C147.371 165.669 147.524 166.161 147.53 166.719C147.524 167.182 147.41 167.604 147.186 167.984C146.967 168.365 146.66 168.685 146.264 168.945C145.868 169.201 145.41 169.375 144.889 169.469V170.609C146.212 170.531 147.363 170.422 148.342 170.281L148.483 171.547C147.222 171.771 145.899 171.924 144.514 172.008C143.129 172.086 141.702 172.125 140.233 172.125H139.873L139.686 170.734C140.988 170.734 142.139 170.719 143.139 170.688V169.477C142.603 169.388 142.131 169.216 141.725 168.961C141.319 168.706 141.004 168.385 140.78 168C140.561 167.615 140.452 167.188 140.452 166.719C140.452 166.161 140.6 165.669 140.897 165.242C141.199 164.81 141.618 164.474 142.155 164.234C142.691 163.995 143.301 163.875 143.983 163.875ZM141.623 173.109H143.358V175.688H151.405V177.094H141.623V173.109ZM142.077 166.719C142.071 167.021 142.149 167.286 142.311 167.516C142.472 167.745 142.696 167.922 142.983 168.047C143.274 168.172 143.608 168.234 143.983 168.234C144.556 168.229 145.014 168.091 145.358 167.82C145.707 167.549 145.884 167.182 145.889 166.719C145.884 166.25 145.707 165.88 145.358 165.609C145.014 165.339 144.556 165.203 143.983 165.203C143.608 165.203 143.274 165.263 142.983 165.383C142.696 165.503 142.472 165.677 142.311 165.906C142.149 166.135 142.071 166.406 142.077 166.719ZM149.17 163.281H150.905V167.844H152.811V169.281H150.905V174.062H149.17V163.281ZM166.152 175.75H153.245V174.312H156.667V171.984H154.777V167.375H162.902V165.641H154.745V164.234H164.62V168.766H156.511V170.578H164.948V171.984H162.886V174.312H166.152V175.75ZM161.183 174.312V171.984H158.355V174.312H161.183ZM177.836 168.891H180.008V170.328H177.836V177.391H176.117V163.266H177.836V168.891ZM166.695 165.438H170.039V163.469H171.773V165.438H175.023V166.828H166.695V165.438ZM167.352 171.078C167.346 170.438 167.497 169.865 167.805 169.359C168.112 168.849 168.536 168.453 169.078 168.172C169.62 167.891 170.232 167.75 170.914 167.75C171.586 167.75 172.19 167.891 172.727 168.172C173.263 168.453 173.685 168.849 173.992 169.359C174.305 169.865 174.461 170.438 174.461 171.078C174.461 171.719 174.305 172.292 173.992 172.797C173.685 173.297 173.263 173.688 172.727 173.969C172.19 174.25 171.586 174.391 170.914 174.391C170.232 174.391 169.62 174.25 169.078 173.969C168.536 173.688 168.112 173.297 167.805 172.797C167.497 172.292 167.346 171.719 167.352 171.078ZM169.008 171.078C169.008 171.453 169.089 171.784 169.25 172.07C169.411 172.352 169.635 172.57 169.922 172.727C170.214 172.878 170.544 172.953 170.914 172.953C171.273 172.953 171.596 172.878 171.883 172.727C172.169 172.576 172.393 172.357 172.555 172.07C172.716 171.784 172.799 171.453 172.805 171.078C172.799 170.703 172.714 170.372 172.547 170.086C172.385 169.794 172.161 169.57 171.875 169.414C171.594 169.253 171.273 169.172 170.914 169.172C170.544 169.172 170.214 169.253 169.922 169.414C169.635 169.57 169.411 169.794 169.25 170.086C169.089 170.372 169.008 170.703 169.008 171.078ZM185.473 172.453C185.463 173.078 185.604 173.674 185.895 174.242C186.192 174.81 186.632 175.284 187.216 175.664C187.794 175.263 188.234 174.771 188.536 174.188C188.838 173.599 188.994 173.021 189.005 172.453V171.719H190.708V172.453C190.703 172.953 190.799 173.43 190.997 173.883C191.2 174.336 191.507 174.742 191.919 175.102C192.335 175.456 192.848 175.729 193.458 175.922L192.583 177.203C191.916 176.969 191.351 176.635 190.887 176.203C190.429 175.776 190.075 175.271 189.825 174.688C189.58 175.281 189.239 175.807 188.802 176.266C188.369 176.729 187.843 177.083 187.223 177.328C186.593 177.094 186.059 176.753 185.622 176.305C185.19 175.862 184.854 175.344 184.614 174.75C184.348 175.307 183.989 175.797 183.536 176.219C183.083 176.646 182.541 176.974 181.911 177.203L181.067 175.922C181.656 175.719 182.153 175.435 182.559 175.07C182.966 174.706 183.27 174.297 183.473 173.844C183.677 173.391 183.781 172.927 183.786 172.453V171.719H185.473V172.453ZM180.489 167.375C180.489 166.729 180.651 166.148 180.973 165.633C181.296 165.117 181.739 164.714 182.302 164.422C182.869 164.13 183.505 163.984 184.208 163.984C184.765 163.984 185.283 164.081 185.762 164.273C186.242 164.461 186.653 164.729 186.997 165.078H190.395V163.266H192.13V171.234H190.395V169.609H187.036C186.692 169.969 186.276 170.247 185.786 170.445C185.302 170.638 184.776 170.734 184.208 170.734C183.505 170.734 182.869 170.591 182.302 170.305C181.739 170.013 181.296 169.612 180.973 169.102C180.651 168.591 180.489 168.016 180.489 167.375ZM182.161 167.375C182.161 167.755 182.247 168.091 182.419 168.383C182.596 168.669 182.841 168.891 183.153 169.047C183.471 169.203 183.828 169.281 184.223 169.281C184.609 169.281 184.955 169.203 185.262 169.047C185.575 168.891 185.817 168.669 185.989 168.383C186.166 168.091 186.255 167.755 186.255 167.375C186.255 166.99 186.166 166.651 185.989 166.359C185.817 166.068 185.575 165.841 185.262 165.68C184.955 165.518 184.609 165.438 184.223 165.438C183.828 165.438 183.471 165.518 183.153 165.68C182.841 165.841 182.596 166.068 182.419 166.359C182.247 166.651 182.161 166.99 182.161 167.375ZM187.802 166.469C187.885 166.776 187.927 167.078 187.927 167.375C187.927 167.651 187.89 167.927 187.817 168.203H190.395V166.469H187.802ZM197.095 173.078H203.314V171.734H205.048V177.219H195.377V171.734H197.095V173.078ZM193.83 169.516H206.705V170.938H193.83V169.516ZM194.486 167.406C195.444 167.286 196.293 167.055 197.033 166.711C197.778 166.367 198.353 165.953 198.759 165.469C199.166 164.984 199.371 164.479 199.377 163.953V163.422H201.158V163.953C201.158 164.464 201.361 164.964 201.767 165.453C202.179 165.943 202.754 166.365 203.494 166.719C204.233 167.068 205.074 167.297 206.017 167.406L205.408 168.781C204.236 168.625 203.199 168.299 202.298 167.805C201.403 167.31 200.726 166.701 200.267 165.977C199.809 166.701 199.129 167.31 198.228 167.805C197.327 168.294 196.293 168.62 195.127 168.781L194.486 167.406ZM203.314 175.844V174.406H197.095V175.844H203.314ZM219.139 177.391H217.42V163.266H219.139V177.391ZM208.17 164.641H209.889V172.359C212.113 172.323 214.202 172.109 216.155 171.719L216.373 173.172C214.176 173.63 211.847 173.854 209.389 173.844H208.17V164.641ZM231.948 168.625H234.12V170.047H231.948V177.406H230.214V163.266H231.948V168.625ZM221.464 164.609H228.073V166.016H223.198V172.5C224.344 172.495 225.376 172.458 226.292 172.391C227.209 172.323 228.136 172.208 229.073 172.047L229.277 173.516C228.251 173.693 227.24 173.81 226.245 173.867C225.251 173.924 224.047 173.953 222.636 173.953H221.464V164.609ZM236.133 176.125C235.914 176.125 235.711 176.07 235.523 175.961C235.336 175.852 235.188 175.703 235.078 175.516C234.969 175.328 234.914 175.125 234.914 174.906C234.914 174.693 234.969 174.495 235.078 174.312C235.188 174.125 235.336 173.977 235.523 173.867C235.711 173.758 235.914 173.703 236.133 173.703C236.346 173.703 236.544 173.758 236.727 173.867C236.914 173.977 237.062 174.125 237.172 174.312C237.281 174.495 237.336 174.693 237.336 174.906C237.336 175.125 237.281 175.328 237.172 175.516C237.062 175.703 236.914 175.852 236.727 175.961C236.544 176.07 236.346 176.125 236.133 176.125Z" fill="#1F2021"/>
<rect x="73.5" y="221" width="200" height="50" rx="25" fill="#FF4D26"/>
<path d="M171.353 243.5H173.353V244.719H171.353V248.766H169.869V239.344H171.353V243.5ZM160.244 247.203C161.806 247.203 163.025 247.193 163.9 247.172V246.227C163.093 246.138 162.457 245.914 161.994 245.555C161.53 245.19 161.301 244.729 161.306 244.172C161.301 243.75 161.436 243.383 161.713 243.07C161.989 242.758 162.377 242.518 162.877 242.352C163.382 242.185 163.968 242.104 164.634 242.109C165.301 242.104 165.884 242.185 166.384 242.352C166.884 242.518 167.272 242.758 167.548 243.07C167.824 243.383 167.963 243.75 167.963 244.172C167.957 244.724 167.726 245.182 167.267 245.547C166.809 245.906 166.181 246.133 165.384 246.227V247.117C166.796 247.044 168.025 246.932 169.072 246.781L169.197 247.844C167.869 248.073 166.496 248.221 165.08 248.289C163.663 248.357 162.103 248.391 160.4 248.391L160.244 247.203ZM160.603 240.531H163.9V239.219H165.384V240.531H168.681V241.641H160.603V240.531ZM161.994 249.422H171.353V253.328H169.869V250.578H161.994V249.422ZM162.713 244.172C162.713 244.5 162.882 244.763 163.22 244.961C163.559 245.154 164.02 245.25 164.603 245.25C165.202 245.25 165.676 245.154 166.025 244.961C166.374 244.768 166.546 244.505 166.541 244.172C166.546 243.839 166.377 243.578 166.033 243.391C165.694 243.203 165.228 243.115 164.634 243.125C164.035 243.115 163.564 243.203 163.22 243.391C162.882 243.578 162.713 243.839 162.713 244.172ZM185.475 249.516H183.991V239.344H185.475V249.516ZM174.147 243.75C174.147 243.089 174.311 242.495 174.639 241.969C174.967 241.443 175.415 241.031 175.983 240.734C176.551 240.432 177.183 240.281 177.881 240.281C178.579 240.281 179.209 240.432 179.772 240.734C180.34 241.031 180.785 241.443 181.108 241.969C181.436 242.495 181.6 243.089 181.6 243.75C181.6 244.422 181.436 245.023 181.108 245.555C180.785 246.081 180.34 246.492 179.772 246.789C179.209 247.086 178.579 247.234 177.881 247.234C177.183 247.234 176.551 247.086 175.983 246.789C175.415 246.492 174.967 246.081 174.639 245.555C174.311 245.023 174.147 244.422 174.147 243.75ZM175.6 243.75C175.6 244.182 175.696 244.565 175.889 244.898C176.087 245.227 176.36 245.482 176.709 245.664C177.058 245.846 177.449 245.938 177.881 245.938C178.308 245.938 178.694 245.846 179.037 245.664C179.381 245.482 179.652 245.227 179.85 244.898C180.048 244.565 180.147 244.182 180.147 243.75C180.147 243.328 180.048 242.953 179.85 242.625C179.652 242.292 179.381 242.034 179.037 241.852C178.694 241.669 178.308 241.578 177.881 241.578C177.449 241.578 177.058 241.669 176.709 241.852C176.36 242.034 176.087 242.292 175.889 242.625C175.696 242.953 175.6 243.328 175.6 243.75ZM176.319 248.484H177.819V251.828H185.897V253.031H176.319V248.484Z" fill="white"/>
</g>
<defs>
<filter id="filter0_d_826_21748" x="0" y="0" width="347" height="322" filterUnits="userSpaceOnUse" color-interpolation-filters="sRGB">
<feFlood flood-opacity="0" result="BackgroundImageFix"/>
<feColorMatrix in="SourceAlpha" type="matrix" values="0 0 0 0 0 0 0 0 0 0 0 0 0 0 0 0 0 0 127 0" result="hardAlpha"/>
<feOffset dy="5"/>
<feGaussianBlur stdDeviation="3"/>
<feComposite in2="hardAlpha" operator="out"/>
<feColorMatrix type="matrix" values="0 0 0 0 0.220833 0 0 0 0 0.112241 0 0 0 0 0.0867998 0 0 0 0.09 0"/>
<feBlend mode="normal" in2="BackgroundImageFix" result="effect1_dropShadow_826_21748"/>
<feBlend mode="normal" in="SourceGraphic" in2="effect1_dropShadow_826_21748" result="shape"/>
</filter>
</defs>
</svg>
