<svg width="16" height="16" viewBox="0 0 16 16" fill="none" xmlns="http://www.w3.org/2000/svg">
<g id="time">
<path id="Vector" d="M8 1.5C4.41031 1.5 1.5 4.41031 1.5 8C1.5 11.5841 4.41625 14.5 8 14.5C11.5894 14.5 14.5 11.5894 14.5 8C14.5 4.41594 11.5841 1.5 8 1.5ZM11.375 9H7.625C7.59185 9 7.56005 8.98683 7.53661 8.96339C7.51317 8.93995 7.5 8.90815 7.5 8.875V3.625C7.5 3.59185 7.51317 3.56005 7.53661 3.53661C7.56005 3.51317 7.59185 3.5 7.625 3.5H8.375C8.40815 3.5 8.43995 3.51317 8.46339 3.53661C8.48683 3.56005 8.5 3.59185 8.5 3.625V8H11.375C11.4082 8 11.4399 8.01317 11.4634 8.03661C11.4868 8.06005 11.5 8.09185 11.5 8.125V8.875C11.5 8.90815 11.4868 8.93995 11.4634 8.96339C11.4399 8.98683 11.4082 9 11.375 9Z" fill="#FF4D26"/>
</g>
</svg>
