<svg width="25" height="24" viewBox="0 0 25 24" fill="none" xmlns="http://www.w3.org/2000/svg">
<g id="map">
<path id="Vector" d="M15.1845 5.84261L9.81547 2.40761C9.6019 2.30093 9.36595 2.24677 9.12723 2.24962C8.88852 2.25247 8.65393 2.31226 8.44297 2.42402L3.14891 5.97621C3.02846 6.04001 2.92769 6.13543 2.8574 6.25222C2.78712 6.369 2.74999 6.50272 2.75 6.63902V20.5046C2.74999 20.634 2.78343 20.7611 2.84707 20.8737C2.91071 20.9863 3.00239 21.0806 3.1132 21.1473C3.22402 21.214 3.3502 21.2509 3.47949 21.2544C3.60879 21.258 3.7368 21.228 3.85109 21.1675L8.43641 18.1773C8.64909 18.0646 8.88576 18.0048 9.12644 18.0028C9.36712 18.0009 9.60473 18.0569 9.81922 18.1661L15.0627 21.5879C15.2753 21.6963 15.5107 21.7523 15.7493 21.7514C15.9879 21.7505 16.2229 21.6927 16.4347 21.5828L21.8455 18.0231C21.9674 17.9598 22.0696 17.8643 22.1409 17.7469C22.2123 17.6295 22.25 17.4948 22.25 17.3575V3.49558C22.25 3.36624 22.2166 3.23909 22.1529 3.12649C22.0893 3.01389 21.9976 2.91966 21.8868 2.85295C21.776 2.78625 21.6498 2.74933 21.5205 2.7458C21.3912 2.74226 21.2632 2.77222 21.1489 2.83277L16.5552 5.82621C16.3444 5.93766 16.1102 5.99728 15.8718 6.00013C15.6335 6.00298 15.3979 5.94899 15.1845 5.84261Z" stroke="#5C5D61" stroke-width="1.5" stroke-linecap="round" stroke-linejoin="round"/>
<path id="Vector_2" d="M15.875 6V21.75" stroke="#5C5D61" stroke-width="1.5" stroke-linecap="round" stroke-linejoin="round"/>
<path id="Vector_3" d="M9.125 2.25V18" stroke="#5C5D61" stroke-width="1.5" stroke-linecap="round" stroke-linejoin="round"/>
</g>
</svg>
