<svg width="16" height="16" viewBox="0 0 16 16" fill="none" xmlns="http://www.w3.org/2000/svg">
<g id="images">
<path id="Vector" d="M13.5 3.5V3C13.4988 2.60253 13.3404 2.22167 13.0594 1.94061C12.7783 1.65956 12.3975 1.50115 12 1.5H2C1.60253 1.50115 1.22167 1.65956 0.940615 1.94061C0.65956 2.22167 0.501154 2.60253 0.5 3V11C0.501154 11.3975 0.65956 11.7783 0.940615 12.0594C1.22167 12.3404 1.60253 12.4988 2 12.5H2.5" stroke="white" stroke-linejoin="round"/>
<path id="Vector_2" d="M14.0628 4H4.43719C3.64345 4 3 4.64345 3 5.43719V13.0628C3 13.8565 3.64345 14.5 4.43719 14.5H14.0628C14.8565 14.5 15.5 13.8565 15.5 13.0628V5.43719C15.5 4.64345 14.8565 4 14.0628 4Z" stroke="white" stroke-linejoin="round"/>
<path id="Vector_3" d="M11.6539 7.81855C12.185 7.81855 12.6155 7.39113 12.6155 6.86387C12.6155 6.33661 12.185 5.90918 11.6539 5.90918C11.1229 5.90918 10.6924 6.33661 10.6924 6.86387C10.6924 7.39113 11.1229 7.81855 11.6539 7.81855Z" stroke="white" stroke-miterlimit="10"/>
<path id="Vector_4" d="M10.6922 11.6305L7.96875 8.93085C7.79465 8.75883 7.56178 8.65927 7.31714 8.65225C7.07249 8.64524 6.8343 8.73128 6.65063 8.89303L3 12.114" stroke="white" stroke-linecap="round" stroke-linejoin="round"/>
<path id="Vector_5" d="M8.28857 14.5001L11.9945 10.821C12.165 10.6528 12.3918 10.5538 12.6311 10.543C12.8704 10.5322 13.1052 10.6104 13.2901 10.7626L15.5001 12.591" stroke="white" stroke-linecap="round" stroke-linejoin="round"/>
</g>
</svg>
