<svg width="20" height="21" viewBox="0 0 20 21" fill="none" xmlns="http://www.w3.org/2000/svg">
<g id="heart">
<path id="Vector" d="M9.99995 18.0039C9.74905 18.0036 9.50405 17.9278 9.29682 17.7863C6.2269 15.7023 4.8976 14.2734 4.1644 13.3801C2.6019 11.4758 1.85385 9.5207 1.87495 7.40352C1.89955 4.97734 3.84604 3.00391 6.21401 3.00391C7.93588 3.00391 9.12846 3.97383 9.82299 4.78164C9.84499 4.80697 9.87218 4.82729 9.90271 4.84121C9.93323 4.85513 9.96639 4.86233 9.99995 4.86233C10.0335 4.86233 10.0667 4.85513 10.0972 4.84121C10.1277 4.82729 10.1549 4.80697 10.1769 4.78164C10.8714 3.97305 12.064 3.00391 13.7859 3.00391C16.1539 3.00391 18.1003 4.97734 18.1249 7.40391C18.146 9.52148 17.3972 11.4766 15.8355 13.3805C15.1023 14.2738 13.773 15.7027 10.7031 17.7867C10.4958 17.928 10.2508 18.0037 9.99995 18.0039Z" fill="white"/>
</g>
</svg>
