<svg width="16" height="16" viewBox="0 0 16 16" fill="none" xmlns="http://www.w3.org/2000/svg">
<g id="Frame 9577">
<path id="Vector" d="M10.8584 13.5004C10.7795 13.5007 10.7024 13.4761 10.6383 13.43L7.62401 11.2447L4.60972 13.43C4.54532 13.4768 4.46774 13.5018 4.38818 13.5015C4.30863 13.5012 4.23123 13.4756 4.16717 13.4284C4.10311 13.3813 4.05572 13.3149 4.03184 13.2391C4.00796 13.1632 4.00883 13.0817 4.03433 13.0063L5.20995 9.52419L2.16308 7.43473C2.09708 7.38952 2.04727 7.3244 2.02092 7.24886C1.99458 7.17333 1.99307 7.09135 2.01664 7.0149C2.0402 6.93845 2.08759 6.87154 2.15189 6.82395C2.21619 6.77635 2.29402 6.75057 2.37401 6.75036H6.13292L7.2673 3.25934C7.29173 3.18397 7.33941 3.11828 7.4035 3.07169C7.46759 3.0251 7.54478 3 7.62401 3C7.70325 3 7.78044 3.0251 7.84453 3.07169C7.90862 3.11828 7.9563 3.18397 7.98073 3.25934L9.11511 6.75153H12.874C12.9541 6.75149 13.0321 6.7771 13.0966 6.8246C13.1611 6.8721 13.2087 6.93901 13.2324 7.01552C13.2561 7.09202 13.2547 7.17411 13.2284 7.24976C13.2021 7.32541 13.1522 7.39064 13.0861 7.4359L10.0381 9.52419L11.213 13.0054C11.232 13.0617 11.2374 13.1218 11.2286 13.1806C11.2199 13.2395 11.1972 13.2954 11.1626 13.3437C11.1279 13.3921 11.0823 13.4315 11.0294 13.4588C10.9765 13.486 10.9179 13.5003 10.8584 13.5004Z" fill="#FF4D26"/>
</g>
</svg>
