<svg width="25" height="24" viewBox="0 0 25 24" fill="none" xmlns="http://www.w3.org/2000/svg">
<path d="M12.4995 21C12.1985 20.9996 11.9045 20.9086 11.6558 20.7389C7.97189 18.2381 6.37673 16.5234 5.49689 15.4514C3.62189 13.1663 2.72423 10.8202 2.74954 8.27953C2.77908 5.36813 5.11486 3 7.95642 3C10.0227 3 11.4538 4.16391 12.2872 5.13328C12.3136 5.16368 12.3462 5.18805 12.3829 5.20476C12.4195 5.22146 12.4593 5.23011 12.4995 5.23011C12.5398 5.23011 12.5796 5.22146 12.6162 5.20476C12.6529 5.18805 12.6855 5.16368 12.7119 5.13328C13.5453 4.16297 14.9764 3 17.0427 3C19.8842 3 22.22 5.36812 22.2495 8.28C22.2749 10.8211 21.3763 13.1672 19.5022 15.4519C18.6224 16.5239 17.0272 18.2386 13.3433 20.7394C13.0946 20.9089 12.8006 20.9998 12.4995 21Z" fill="#FF4D26"/>
</svg>
