<svg width="20" height="21" viewBox="0 0 20 21" fill="none" xmlns="http://www.w3.org/2000/svg">
<g id="storefront">
<path id="Vector" d="M17.5 18.0039V9.87891" stroke="white" stroke-linecap="round" stroke-linejoin="round"/>
<path id="Vector_2" d="M2.5 9.87891V18.0039" stroke="white" stroke-linecap="round" stroke-linejoin="round"/>
<path id="Vector_3" d="M14.9401 2.37891H5.05964C4.20847 2.37891 3.43972 2.84766 3.10925 3.56875L1.41785 7.26172C0.848315 8.5043 1.79402 9.91211 3.26121 9.95703C3.28725 9.95703 3.31329 9.95703 3.33933 9.95703C4.56589 9.95703 5.56003 8.97344 5.56003 7.9168C5.56003 8.97148 6.55457 9.95703 7.78113 9.95703C9.00769 9.95703 9.99988 9.04375 9.99988 7.9168C9.99988 8.97148 10.994 9.95703 12.2206 9.95703C13.4471 9.95703 14.4417 9.04375 14.4417 7.9168C14.4417 9.04375 15.4358 9.95703 16.6624 9.95703C16.6884 9.95703 16.7138 9.95703 16.7385 9.95703C18.2057 9.91133 19.1514 8.50352 18.5819 7.26172L16.8905 3.56875C16.56 2.84766 15.7913 2.37891 14.9401 2.37891Z" stroke="white" stroke-linecap="round" stroke-linejoin="round"/>
<path id="Vector_4" d="M1.25 18.6289H18.75" stroke="white" stroke-linecap="round" stroke-linejoin="round"/>
<path id="Vector_5" d="M5.3125 11.7539H8.4375C8.68614 11.7539 8.9246 11.8527 9.10041 12.0285C9.27623 12.2043 9.375 12.4428 9.375 12.6914V16.1289H4.375V12.6914C4.375 12.4428 4.47377 12.2043 4.64959 12.0285C4.8254 11.8527 5.06386 11.7539 5.3125 11.7539Z" stroke="white" stroke-linecap="round" stroke-linejoin="round"/>
<path id="Vector_6" d="M11.25 18.6289V12.6914C11.25 12.4428 11.3488 12.2043 11.5246 12.0285C11.7004 11.8527 11.9389 11.7539 12.1875 11.7539H14.6875C14.9361 11.7539 15.1746 11.8527 15.3504 12.0285C15.5262 12.2043 15.625 12.4428 15.625 12.6914V18.6289" stroke="white" stroke-linecap="round" stroke-linejoin="round"/>
</g>
</svg>
