<svg width="20" height="20" viewBox="0 0 20 20" fill="none" xmlns="http://www.w3.org/2000/svg">
<g id="Frame 9577">
<path id="Vector" d="M12.8584 15.5004C12.7795 15.5007 12.7024 15.4761 12.6383 15.43L9.62401 13.2447L6.60972 15.43C6.54532 15.4768 6.46774 15.5018 6.38818 15.5015C6.30863 15.5012 6.23123 15.4756 6.16717 15.4284C6.10311 15.3813 6.05572 15.3149 6.03184 15.2391C6.00796 15.1632 6.00883 15.0817 6.03433 15.0063L7.20995 11.5242L4.16308 9.43473C4.09708 9.38952 4.04727 9.3244 4.02092 9.24886C3.99458 9.17333 3.99307 9.09135 4.01664 9.0149C4.0402 8.93845 4.08759 8.87154 4.15189 8.82395C4.21619 8.77635 4.29402 8.75057 4.37401 8.75036H8.13292L9.2673 5.25934C9.29173 5.18397 9.33941 5.11828 9.4035 5.07169C9.46759 5.0251 9.54478 5 9.62401 5C9.70325 5 9.78044 5.0251 9.84453 5.07169C9.90862 5.11828 9.9563 5.18397 9.98073 5.25934L11.1151 8.75153H14.874C14.9541 8.75149 15.0321 8.7771 15.0966 8.8246C15.1611 8.8721 15.2087 8.93901 15.2324 9.01552C15.2561 9.09202 15.2547 9.17411 15.2284 9.24976C15.2021 9.32541 15.1522 9.39064 15.0861 9.4359L12.0381 11.5242L13.213 15.0054C13.232 15.0617 13.2374 15.1218 13.2286 15.1806C13.2199 15.2395 13.1972 15.2954 13.1626 15.3437C13.1279 15.3921 13.0823 15.4315 13.0294 15.4588C12.9765 15.486 12.9179 15.5003 12.8584 15.5004Z" fill="#D7D8E0"/>
</g>
</svg>
